<svg width="643" height="643" viewBox="0 0 643 643" fill="none" xmlns="http://www.w3.org/2000/svg">
<g clip-path="url(#clip0_5_75)">
<path fill-rule="evenodd" clip-rule="evenodd" d="M321.5 554.587C450.231 554.587 554.587 450.231 554.587 321.5C554.587 192.769 450.231 88.4125 321.5 88.4125C192.769 88.4125 88.4125 192.769 88.4125 321.5C88.4125 450.231 192.769 554.587 321.5 554.587ZM562.625 321.5C562.625 454.67 454.67 562.625 321.5 562.625C188.33 562.625 80.375 454.67 80.375 321.5C80.375 188.33 188.33 80.375 321.5 80.375C454.67 80.375 562.625 188.33 562.625 321.5Z" fill="#FFF308" fill-opacity="0.2"/>
<path fill-rule="evenodd" clip-rule="evenodd" d="M320.161 522.438C431.875 522.438 522.438 431.875 522.438 320.16C522.438 208.446 431.875 117.883 320.161 117.883C208.446 117.883 117.883 208.446 117.883 320.16C117.883 431.875 208.446 522.438 320.161 522.438ZM533.154 320.16C533.154 437.794 437.794 533.154 320.161 533.154C202.527 533.154 107.167 437.794 107.167 320.16C107.167 202.527 202.527 107.167 320.161 107.167C437.794 107.167 533.154 202.527 533.154 320.16Z" fill="#FFF308" fill-opacity="0.6"/>
<path fill-rule="evenodd" clip-rule="evenodd" d="M320.16 501.004C420.038 501.004 501.004 420.038 501.004 320.16C501.004 220.283 420.038 139.317 320.16 139.317C220.283 139.317 139.317 220.283 139.317 320.16C139.317 420.038 220.283 501.004 320.16 501.004Z" fill="#FFEC65"/>
</g>
<defs>
<clipPath id="clip0_5_75">
<rect width="482.25" height="482.25" fill="white" transform="translate(80.375 80.375)"/>
</clipPath>
</defs>
</svg>
