<svg width="643" height="643" viewBox="0 0 643 643" fill="none" xmlns="http://www.w3.org/2000/svg">
<g clip-path="url(#clip0_2_138)">
<path fill-rule="evenodd" clip-rule="evenodd" d="M321.5 554.587C450.231 554.587 554.587 450.231 554.587 321.5C554.587 192.769 450.231 88.4125 321.5 88.4125C192.769 88.4125 88.4125 192.769 88.4125 321.5C88.4125 450.231 192.769 554.587 321.5 554.587ZM562.625 321.5C562.625 454.67 454.67 562.625 321.5 562.625C188.33 562.625 80.375 454.67 80.375 321.5C80.375 188.33 188.33 80.375 321.5 80.375C454.67 80.375 562.625 188.33 562.625 321.5Z" fill="#FFF308" fill-opacity="0.2"/>
<path fill-rule="evenodd" clip-rule="evenodd" d="M320.16 522.438C431.875 522.438 522.437 431.875 522.437 320.16C522.437 208.446 431.875 117.883 320.16 117.883C208.446 117.883 117.883 208.446 117.883 320.16C117.883 431.875 208.446 522.438 320.16 522.438ZM533.154 320.16C533.154 437.794 437.794 533.154 320.16 533.154C202.527 533.154 107.167 437.794 107.167 320.16C107.167 202.527 202.527 107.167 320.16 107.167C437.794 107.167 533.154 202.527 533.154 320.16Z" fill="#FFF308" fill-opacity="0.6"/>
<path fill-rule="evenodd" clip-rule="evenodd" d="M320.16 501.004C420.038 501.004 501.004 420.038 501.004 320.16C501.004 220.283 420.038 139.317 320.16 139.317C220.283 139.317 139.317 220.283 139.317 320.16C139.317 420.038 220.283 501.004 320.16 501.004Z" fill="#FFEC65"/>
</g>
<path d="M560.332 244.75C560.372 243.546 560.393 242.338 560.393 241.125C560.393 181.938 512.312 133.958 453.003 133.958C405.954 133.958 365.972 164.151 351.451 206.18C341.023 200.749 329.165 197.679 316.588 197.679C274.911 197.679 241.125 231.395 241.125 272.985C241.125 314.576 274.911 348.292 316.588 348.292L453.147 348.292H534.27C564.727 348.292 589.417 323.653 589.417 293.26C589.417 272.274 577.645 254.032 560.332 244.75Z" fill="white"/>
<path d="M250.018 435.631C250.043 434.886 250.056 434.138 250.056 433.387C250.056 396.748 220.468 367.046 183.969 367.046C155.016 367.046 130.412 385.737 121.476 411.754C115.059 408.393 107.762 406.492 100.022 406.492C74.3747 406.492 53.5833 427.364 53.5833 453.11C53.5833 478.857 74.3747 499.728 100.022 499.728L184.058 499.728H233.98C252.723 499.728 267.917 484.476 267.917 465.661C267.917 452.67 260.673 441.377 250.018 435.631Z" fill="white"/>
<defs>
<clipPath id="clip0_2_138">
<rect width="482.25" height="482.25" fill="white" transform="translate(80.375 80.375)"/>
</clipPath>
</defs>
</svg>
