<svg width="643" height="579" viewBox="0 0 643 579" fill="none" xmlns="http://www.w3.org/2000/svg">
<path d="M522.354 262.915C522.41 261.223 522.438 259.524 522.438 257.818C522.438 174.587 455.865 107.115 373.744 107.115C308.6 107.115 253.24 149.574 233.135 208.676C218.696 201.04 202.277 196.722 184.863 196.722C127.156 196.722 80.375 244.135 80.375 302.622C80.375 361.108 127.156 408.521 184.863 408.521L373.744 408.521C373.811 408.521 373.877 408.521 373.944 408.521H486.269C528.439 408.521 562.625 373.873 562.625 331.133C562.625 301.622 546.326 275.968 522.354 262.915Z" fill="white"/>
<path fill-rule="evenodd" clip-rule="evenodd" d="M267.943 436.684C263.216 435.148 258.139 437.735 256.603 442.462L230.301 523.409C228.765 528.137 231.352 533.214 236.08 534.75L244.441 537.467C249.168 539.003 254.246 536.416 255.782 531.688L282.083 450.741C283.619 446.014 281.032 440.937 276.305 439.401L267.943 436.684ZM310.54 442.462C312.076 437.735 317.153 435.148 321.88 436.684L330.242 439.401C334.969 440.937 337.556 446.014 336.02 450.741L287.659 599.58C286.123 604.308 281.046 606.895 276.319 605.359L267.957 602.642C263.23 601.106 260.643 596.028 262.179 591.301L310.54 442.462ZM364.478 442.462C366.014 437.735 371.091 435.148 375.818 436.684L384.18 439.401C388.907 440.937 391.494 446.014 389.958 450.741L352.627 565.634C351.091 570.362 346.014 572.949 341.286 571.413L332.925 568.696C328.198 567.16 325.611 562.083 327.147 557.355L364.478 442.462Z" fill="#B4F5F2"/>
</svg>
