<svg width="643" height="643" viewBox="0 0 643 643" fill="none" xmlns="http://www.w3.org/2000/svg">
<path d="M522.354 262.915C522.41 261.223 522.438 259.524 522.438 257.818C522.438 174.587 455.865 107.115 373.744 107.115C308.6 107.115 253.24 149.574 233.135 208.676C218.696 201.04 202.277 196.722 184.863 196.722C127.156 196.722 80.375 244.135 80.375 302.622C80.375 361.108 127.156 408.521 184.863 408.521L373.744 408.521C373.811 408.521 373.877 408.521 373.944 408.521H486.269C528.439 408.521 562.625 373.873 562.625 331.133C562.625 301.622 546.326 275.968 522.354 262.915Z" fill="white"/>
<path fill-rule="evenodd" clip-rule="evenodd" d="M254.901 436.684C250.174 435.148 245.096 437.735 243.56 442.462L195.2 591.301C193.664 596.028 196.251 601.106 200.978 602.642L209.339 605.359C214.067 606.895 219.144 604.308 220.68 599.58L269.041 450.741C270.577 446.014 267.99 440.937 263.262 439.401L254.901 436.684ZM416.132 436.684C411.405 435.148 406.328 437.735 404.792 442.462L356.431 591.301C354.895 596.028 357.482 601.106 362.209 602.642L370.571 605.359C375.298 606.895 380.375 604.308 381.911 599.58L430.272 450.741C431.808 446.014 429.221 440.937 424.494 439.401L416.132 436.684ZM297.498 442.462C299.034 437.735 304.111 435.148 308.839 436.684L317.2 439.401C321.927 440.937 324.514 446.014 322.978 450.741L285.647 565.634C284.111 570.362 279.034 572.949 274.307 571.413L265.945 568.696C261.218 567.16 258.631 562.083 260.167 557.355L297.498 442.462ZM469.403 436.684C464.676 435.148 459.598 437.735 458.062 442.462L420.731 557.355C419.195 562.083 421.782 567.16 426.51 568.696L434.871 571.413C439.598 572.949 444.676 570.362 446.212 565.634L483.543 450.741C485.079 446.014 482.492 440.937 477.764 439.401L469.403 436.684ZM189.623 442.462C191.159 437.735 196.236 435.148 200.964 436.684L209.325 439.401C214.052 440.937 216.639 446.014 215.103 450.741L188.802 531.688C187.266 536.416 182.189 539.003 177.462 537.467L169.1 534.75C164.373 533.214 161.786 528.137 163.322 523.409L189.623 442.462ZM362.773 436.684C358.046 435.148 352.968 437.735 351.432 442.462L325.131 523.409C323.595 528.137 326.182 533.214 330.91 534.75L339.271 537.467C343.998 539.003 349.076 536.416 350.612 531.688L376.913 450.741C378.449 446.014 375.862 440.937 371.135 439.401L362.773 436.684Z" fill="#B4F5F2"/>
</svg>
