<svg width="643" height="643" viewBox="0 0 643 643" fill="none" xmlns="http://www.w3.org/2000/svg">
<path fill-rule="evenodd" clip-rule="evenodd" d="M522.438 257.818C522.438 259.524 522.41 261.223 522.354 262.915C546.326 275.968 562.625 301.622 562.625 331.133C562.625 368.328 536.734 399.395 502.222 406.83L526.148 362.208L531.535 353.242C533.137 350.576 531.217 347.182 528.106 347.182H516.016H489.46C488.761 347.182 488.278 346.483 488.524 345.829L508.64 292.518L512.596 282.371C513.618 279.748 511.684 276.918 508.869 276.918H497.351H415.998H409.78C407.985 276.918 406.409 278.115 405.927 279.845L404.354 285.491L371.21 404.452L370.077 408.521L184.863 408.521C127.156 408.521 80.375 361.108 80.375 302.622C80.375 244.135 127.156 196.722 184.863 196.722C202.277 196.722 218.696 201.04 233.135 208.676C253.24 149.574 308.6 107.115 373.744 107.115C455.865 107.115 522.438 174.587 522.438 257.818Z" fill="white"/>
<path fill-rule="evenodd" clip-rule="evenodd" d="M308.838 436.684C304.111 435.148 299.034 437.735 297.498 442.462L260.167 557.355C258.631 562.083 261.218 567.16 265.945 568.696L274.307 571.413C279.034 572.949 284.111 570.362 285.647 565.634L322.978 450.741C324.514 446.014 321.927 440.937 317.2 439.401L308.838 436.684ZM254.901 436.684C250.174 435.148 245.096 437.735 243.56 442.462L195.2 591.301C193.664 596.028 196.251 601.106 200.978 602.642L209.34 605.359C214.067 606.895 219.144 604.308 220.68 599.58L269.041 450.741C270.577 446.014 267.99 440.937 263.262 439.401L254.901 436.684ZM189.623 442.462C191.159 437.735 196.236 435.148 200.964 436.684L209.325 439.401C214.052 440.937 216.639 446.014 215.103 450.741L188.802 531.688C187.266 536.416 182.189 539.003 177.462 537.467L169.1 534.75C164.373 533.214 161.786 528.137 163.322 523.409L189.623 442.462ZM362.773 436.684C358.046 435.148 352.968 437.735 351.432 442.462L325.131 523.409C323.595 528.137 326.182 533.214 330.91 534.75L339.271 537.467C343.998 539.003 349.076 536.416 350.612 531.688L376.913 450.741C378.449 446.014 375.862 440.937 371.135 439.401L362.773 436.684Z" fill="#B4F5F2"/>
<path fill-rule="evenodd" clip-rule="evenodd" d="M422.583 292.788C420.159 292.788 418.037 294.415 417.408 296.757L389.25 401.637C388.336 405.041 390.9 408.385 394.425 408.385H432.226C435.424 408.385 437.909 411.167 437.55 414.345L427.437 503.84C426.767 509.769 434.829 512.19 437.536 506.873L507.894 368.721C509.709 365.156 507.12 360.931 503.119 360.931H472.218C468.418 360.931 465.826 357.086 467.25 353.563L488.851 300.155C490.276 296.633 487.684 292.788 483.884 292.788H422.583Z" fill="#FFF686"/>
</svg>
