<svg width="643" height="643" viewBox="0 0 643 643" fill="none" xmlns="http://www.w3.org/2000/svg">
<path fill-rule="evenodd" clip-rule="evenodd" d="M308.798 251.927L262.194 207.044C256.716 201.767 256.665 193.262 262.165 187.964C267.628 182.703 276.492 182.711 281.976 187.992L308.798 213.825V133.68C308.798 126.216 315.007 120.166 322.786 120.166C330.511 120.166 336.773 126.135 336.773 133.68V214.256L364.043 187.992C369.521 182.716 378.353 182.667 383.853 187.964C389.316 193.225 389.308 201.763 383.824 207.044L336.773 252.358V456.847L383.978 502.31C389.461 507.591 389.469 516.128 384.007 521.389C378.506 526.687 369.675 526.638 364.197 521.361L336.773 494.95V575.903C336.773 583.366 330.565 589.417 322.786 589.417C315.061 589.417 308.798 583.448 308.798 575.903V495.003L281.43 521.361C275.947 526.642 267.082 526.65 261.62 521.389C256.119 516.092 256.17 507.586 261.649 502.31L308.798 456.901V251.927Z" fill="white"/>
<path fill-rule="evenodd" clip-rule="evenodd" d="M416.984 393.224L478.855 375.271C486.128 373.16 493.482 377.369 495.307 384.785C497.12 392.15 492.7 399.83 485.421 401.943L449.811 412.276L512.938 452.732C519.368 456.463 521.49 464.87 517.617 471.613C513.771 478.309 505.511 480.752 499.01 476.98L435.513 436.308L444.563 473.077C446.382 480.464 442.027 488.143 434.725 490.263C427.473 492.367 420.122 488.091 418.302 480.698L402.685 417.257L226.509 315.013L163.839 333.198C156.56 335.31 149.2 331.048 147.387 323.683C145.562 316.267 150.001 308.636 157.274 306.526L193.681 295.961L129.858 255.101C123.428 251.37 121.307 242.963 125.179 236.22C129.025 229.524 137.286 227.081 143.786 230.853L207.563 271.686L198.479 234.785C196.659 227.392 201.066 219.704 208.318 217.6C215.62 215.481 222.923 219.778 224.741 227.164L240.39 290.738L416.984 393.224Z" fill="white"/>
<path fill-rule="evenodd" clip-rule="evenodd" d="M239.749 417.68L224.281 480.517C222.463 487.904 215.161 492.201 207.858 490.082C200.606 487.978 196.2 480.29 198.02 472.897L206.922 436.731L143.795 477.187C137.365 480.919 129.061 478.563 125.189 471.82C121.343 465.124 123.368 456.711 129.868 452.939L193.366 412.268L157.162 401.762C149.889 399.652 145.45 392.021 147.276 384.605C149.089 377.24 156.448 372.978 163.728 375.09L226.193 393.216L402.37 290.972L418.037 227.324C419.857 219.93 427.208 215.655 434.46 217.759C441.763 219.878 446.117 227.558 444.299 234.944L435.197 271.92L499.02 231.06C505.45 227.329 513.754 229.685 517.626 236.428C521.472 243.124 519.447 251.536 512.947 255.309L449.17 296.142L485.504 306.685C492.784 308.798 497.204 316.477 495.391 323.843C493.565 331.259 486.212 335.468 478.939 333.357L416.343 315.193L239.749 417.68Z" fill="white"/>
<path d="M291.768 253.332L253.075 216.278C242.121 205.787 242.071 188.587 253.046 178.076C263.672 167.9 280.673 167.921 291.306 178.104L296.085 182.121V133.073C296.085 118.167 308.387 106.317 323.403 106.317C338.394 106.317 350.721 118.11 350.721 133.073V182.121L355.951 178.104C366.589 167.917 383.556 167.872 394.212 178.076C405.156 188.558 405.133 205.791 394.182 216.278L355.49 253.332H399.541L406.812 223.961C410.445 209.285 425.338 200.664 439.863 204.855C454.045 208.947 462.485 223.65 458.946 237.948L456.997 245.628L479.329 230.155C484.724 222.082 487.862 212.424 487.862 202.045C487.862 182.487 476.718 165.486 460.327 156.836C460.365 155.714 460.384 154.588 460.384 153.458C460.384 98.2986 414.864 53.5833 358.713 53.5833C314.17 53.5833 276.317 81.7216 262.57 120.89C252.697 115.829 241.47 112.968 229.563 112.968C190.105 112.968 158.119 144.39 158.119 183.15C158.119 205.406 168.665 225.243 185.116 238.1L185.039 237.788C181.501 223.495 189.979 208.776 204.122 204.695C218.687 200.492 233.538 209.12 237.173 223.801L244.483 253.332H291.768Z" fill="white"/>
</svg>
