<svg width="643" height="594" viewBox="0 0 643 594" fill="none" xmlns="http://www.w3.org/2000/svg">
<path fill-rule="evenodd" clip-rule="evenodd" d="M589.417 184.863C589.417 241.469 544.403 287.563 488.217 289.299C487.972 289.333 487.721 289.35 487.467 289.35H484.929H59.0835C56.0459 289.35 53.5835 286.888 53.5835 283.85V268.058C53.5835 265.021 56.0459 262.558 59.0835 262.558H484.999C527.877 262.521 562.625 227.75 562.625 184.863C562.625 141.952 527.84 107.167 484.929 107.167C442.019 107.167 407.233 141.952 407.233 184.863C407.233 192.261 401.236 198.258 393.838 198.258C386.439 198.258 380.442 192.261 380.442 184.863C380.442 127.156 427.222 80.375 484.929 80.375C542.636 80.375 589.417 127.156 589.417 184.863ZM53.5835 337.433C53.5835 340.471 56.0459 342.933 59.0835 342.933L380.442 342.933C380.463 342.933 380.483 342.933 380.504 342.933C414.508 342.967 442.063 370.543 442.063 404.554C442.063 438.586 414.474 466.175 380.442 466.175C373.044 466.175 367.046 472.172 367.046 479.571C367.046 486.969 373.044 492.967 380.442 492.967C429.271 492.967 468.854 453.383 468.854 404.554C468.854 362.769 439.867 327.754 400.905 318.522C399.913 317.084 398.254 316.142 396.375 316.142H380.442H59.0835C56.0459 316.142 53.5835 318.604 53.5835 321.642V337.433ZM59.0835 369.725C56.0459 369.725 53.5835 372.187 53.5835 375.225V391.017C53.5835 394.054 56.0459 396.517 59.0835 396.517H318.679C321.717 396.517 324.179 394.054 324.179 391.017V375.225C324.179 372.187 321.717 369.725 318.679 369.725H59.0835Z" fill="white"/>
</svg>
