<svg width="157" height="23" viewBox="0 0 157 23" fill="none" xmlns="http://www.w3.org/2000/svg">
<path d="M10.3668 2.55116C12.2425 2.55116 13.9088 2.97 15.3656 3.80768C16.8225 4.62716 17.9515 5.78353 18.7528 7.27679C19.5723 8.77005 19.982 10.4636 19.982 12.3575C19.982 14.2514 19.5723 15.945 18.7528 17.4383C17.9515 18.9315 16.8225 20.097 15.3656 20.9347C13.9088 21.7724 12.2425 22.1912 10.3668 22.1912C8.49117 22.1912 6.8249 21.7724 5.36806 20.9347C3.91122 20.097 2.77306 18.9315 1.95359 17.4383C1.15232 15.945 0.751692 14.2514 0.751692 12.3575C0.751692 10.4636 1.15232 8.77005 1.95359 7.27679C2.77306 5.78353 3.91122 4.62716 5.36806 3.80768C6.8249 2.97 8.49117 2.55116 10.3668 2.55116ZM10.3668 4.08084C8.74611 4.08084 7.3348 4.41774 6.1329 5.09153C4.93101 5.76532 4.00227 6.73047 3.34669 7.987C2.70932 9.22532 2.39064 10.6822 2.39064 12.3575C2.39064 14.0147 2.70932 15.4715 3.34669 16.7281C4.00227 17.9846 4.93101 18.9588 6.1329 19.6508C7.3348 20.3246 8.74611 20.6615 10.3668 20.6615C11.9876 20.6615 13.3989 20.3246 14.6008 19.6508C15.8027 18.9588 16.7223 17.9846 17.3597 16.7281C18.0153 15.4715 18.3431 14.0147 18.3431 12.3575C18.3431 10.6822 18.0153 9.22532 17.3597 7.987C16.7223 6.73047 15.8027 5.76532 14.6008 5.09153C13.3989 4.41774 11.9876 4.08084 10.3668 4.08084ZM10.3942 6.21147C9.22869 6.21147 8.18159 6.46642 7.25285 6.97632C6.34232 7.468 5.62301 8.17821 5.0949 9.10695C4.58501 10.0357 4.33006 11.1192 4.33006 12.3575C4.33006 13.5958 4.58501 14.6794 5.0949 15.6081C5.62301 16.5368 6.34232 17.2562 7.25285 17.7661C8.18159 18.2577 9.22869 18.5036 10.3942 18.5036C11.8328 18.5036 13.0711 18.0938 14.1091 17.2744C15.1471 16.4549 15.8118 15.3714 16.1032 14.0238H12.0877C11.7782 14.9161 11.1681 15.3623 10.2576 15.3623C9.5838 15.3623 9.05569 15.1073 8.67327 14.5974C8.29085 14.0875 8.09964 13.3409 8.09964 12.3575C8.09964 11.3742 8.29085 10.6275 8.67327 10.1176C9.05569 9.60774 9.5838 9.35279 10.2576 9.35279C10.7128 9.35279 11.0953 9.47116 11.4048 9.70789C11.7326 9.94463 11.9603 10.2724 12.0877 10.6913H16.1032C15.8118 9.30726 15.1471 8.21463 14.1091 7.41337C13.0893 6.61211 11.851 6.21147 10.3942 6.21147ZM41.2121 8.88842C40.8661 8.25105 40.3653 7.76847 39.7098 7.44068C39.0724 7.09468 38.3167 6.92168 37.4426 6.92168C35.9311 6.92168 34.7201 7.42247 33.8096 8.42405C32.899 9.40742 32.4438 10.7277 32.4438 12.3848C32.4438 14.1513 32.9172 15.5353 33.8642 16.5368C34.8293 17.5202 36.1496 18.0119 37.825 18.0119C38.9722 18.0119 39.9374 17.7205 40.7205 17.1378C41.5217 16.5551 42.1045 15.7174 42.4687 14.6247H36.5411V11.1829H46.7026V15.5262C46.3566 16.6916 45.7648 17.7752 44.9271 18.7767C44.1076 19.7783 43.0605 20.5887 41.7858 21.2078C40.511 21.827 39.0724 22.1366 37.4699 22.1366C35.576 22.1366 33.8824 21.7268 32.3891 20.9074C30.9141 20.0697 29.7577 18.9133 28.92 17.4383C28.1006 15.9632 27.6908 14.2787 27.6908 12.3848C27.6908 10.4909 28.1006 8.80647 28.92 7.33142C29.7577 5.83816 30.9141 4.68179 32.3891 3.86232C33.8642 3.02463 35.5487 2.60579 37.4426 2.60579C39.7371 2.60579 41.6674 3.16121 43.2335 4.27205C44.8178 5.3829 45.8649 6.92168 46.3748 8.88842H41.2121ZM48.3612 14.3516C48.3612 12.7855 48.6526 11.4106 49.2353 10.2269C49.8362 9.04321 50.6466 8.13268 51.6664 7.49532C52.6862 6.85795 53.8243 6.53926 55.0809 6.53926C56.1553 6.53926 57.0931 6.75779 57.8944 7.19484C58.7139 7.63189 59.3421 8.20553 59.7792 8.91574V6.75779H64.4502V22H59.7792V19.8421C59.3239 20.5523 58.6866 21.1259 57.8671 21.5629C57.0658 22 56.128 22.2185 55.0536 22.2185C53.8152 22.2185 52.6862 21.8998 51.6664 21.2625C50.6466 20.6069 49.8362 19.6873 49.2353 18.5036C48.6526 17.3017 48.3612 15.9177 48.3612 14.3516ZM59.7792 14.3789C59.7792 13.2134 59.4514 12.2938 58.7958 11.62C58.1585 10.9462 57.3754 10.6093 56.4467 10.6093C55.5179 10.6093 54.7258 10.9462 54.0702 11.62C53.4328 12.2756 53.1141 13.1861 53.1141 14.3516C53.1141 15.5171 53.4328 16.4458 54.0702 17.1378C54.7258 17.8116 55.5179 18.1485 56.4467 18.1485C57.3754 18.1485 58.1585 17.8116 58.7958 17.1378C59.4514 16.464 59.7792 15.5444 59.7792 14.3789ZM72.5005 8.91574C72.9375 8.20553 73.5658 7.63189 74.3852 7.19484C75.2047 6.75779 76.1426 6.53926 77.1988 6.53926C78.4553 6.53926 79.5935 6.85795 80.6132 7.49532C81.633 8.13268 82.4343 9.04321 83.017 10.2269C83.618 11.4106 83.9185 12.7855 83.9185 14.3516C83.9185 15.9177 83.618 17.3017 83.017 18.5036C82.4343 19.6873 81.633 20.6069 80.6132 21.2625C79.5935 21.8998 78.4553 22.2185 77.1988 22.2185C76.1243 22.2185 75.1865 22.0091 74.3852 21.5903C73.584 21.1532 72.9557 20.5796 72.5005 19.8694V22H67.8295V1.78632H72.5005V8.91574ZM79.1655 14.3516C79.1655 13.1861 78.8377 12.2756 78.1821 11.62C77.5448 10.9462 76.7526 10.6093 75.8057 10.6093C74.8769 10.6093 74.0848 10.9462 73.4292 11.62C72.7918 12.2938 72.4731 13.2134 72.4731 14.3789C72.4731 15.5444 72.7918 16.464 73.4292 17.1378C74.0848 17.8116 74.8769 18.1485 75.8057 18.1485C76.7344 18.1485 77.5266 17.8116 78.1821 17.1378C78.8377 16.4458 79.1655 15.5171 79.1655 14.3516ZM100.737 14.1331C100.737 14.5701 100.71 15.0254 100.655 15.4988H90.0839C90.1568 16.4458 90.4572 17.1742 90.9853 17.6841C91.5317 18.1758 92.1963 18.4216 92.9794 18.4216C94.1449 18.4216 94.9552 17.9299 95.4105 16.9466H100.382C100.127 17.9482 99.6627 18.8496 98.9889 19.6508C98.3333 20.4521 97.5047 21.0804 96.5031 21.5356C95.5016 21.9909 94.3816 22.2185 93.1433 22.2185C91.65 22.2185 90.3207 21.8998 89.1552 21.2625C87.9897 20.6251 87.0792 19.7146 86.4236 18.5309C85.768 17.3472 85.4402 15.9632 85.4402 14.3789C85.4402 12.7946 85.7589 11.4106 86.3963 10.2269C87.0519 9.04321 87.9624 8.13268 89.1279 7.49532C90.2933 6.85795 91.6318 6.53926 93.1433 6.53926C94.6183 6.53926 95.9295 6.84884 97.0768 7.468C98.224 8.08716 99.1163 8.97037 99.7537 10.1176C100.409 11.2649 100.737 12.6034 100.737 14.1331ZM95.9568 12.9038C95.9568 12.1026 95.6837 11.4652 95.1373 10.9917C94.591 10.5183 93.9081 10.2815 93.0887 10.2815C92.3056 10.2815 91.6409 10.5092 91.0946 10.9644C90.5665 11.4197 90.2387 12.0662 90.1112 12.9038H95.9568ZM102.409 12.3848C102.409 10.4909 102.819 8.80647 103.638 7.33142C104.458 5.83816 105.596 4.68179 107.053 3.86232C108.528 3.02463 110.194 2.60579 112.052 2.60579C114.328 2.60579 116.276 3.20674 117.897 4.40863C119.518 5.61053 120.601 7.24947 121.148 9.32547H116.012C115.63 8.52421 115.084 7.91416 114.373 7.49532C113.681 7.07647 112.889 6.86705 111.997 6.86705C110.558 6.86705 109.393 7.36784 108.501 8.36942C107.608 9.371 107.162 10.7095 107.162 12.3848C107.162 14.0602 107.608 15.3987 108.501 16.4003C109.393 17.4018 110.558 17.9026 111.997 17.9026C112.889 17.9026 113.681 17.6932 114.373 17.2744C115.084 16.8555 115.63 16.2455 116.012 15.4442H121.148C120.601 17.5202 119.518 19.1592 117.897 20.3611C116.276 21.5447 114.328 22.1366 112.052 22.1366C110.194 22.1366 108.528 21.7268 107.053 20.9074C105.596 20.0697 104.458 18.9133 103.638 17.4383C102.819 15.9632 102.409 14.2787 102.409 12.3848ZM128.679 9.29816C129.226 8.46047 129.908 7.80489 130.728 7.33142C131.547 6.83974 132.458 6.5939 133.459 6.5939V11.5381H132.176C131.01 11.5381 130.136 11.793 129.553 12.3029C128.971 12.7946 128.679 13.6687 128.679 14.9252V22H124.008V6.75779H128.679V9.29816ZM138.041 5.17347C137.222 5.17347 136.548 4.93674 136.02 4.46326C135.51 3.97158 135.255 3.37063 135.255 2.66042C135.255 1.932 135.51 1.33105 136.02 0.857579C136.548 0.365894 137.222 0.120052 138.041 0.120052C138.843 0.120052 139.498 0.365894 140.008 0.857579C140.536 1.33105 140.8 1.932 140.8 2.66042C140.8 3.37063 140.536 3.97158 140.008 4.46326C139.498 4.93674 138.843 5.17347 138.041 5.17347ZM140.363 6.75779V22H135.692V6.75779H140.363ZM149.949 22.2185C148.619 22.2185 147.436 21.9909 146.398 21.5356C145.36 21.0804 144.54 20.4612 143.939 19.6782C143.338 18.8769 143.002 17.9846 142.929 17.0012H147.545C147.6 17.5293 147.846 17.9573 148.283 18.2851C148.72 18.6128 149.257 18.7767 149.894 18.7767C150.477 18.7767 150.923 18.6675 151.233 18.4489C151.56 18.2122 151.724 17.9117 151.724 17.5475C151.724 17.1105 151.497 16.7918 151.041 16.5915C150.586 16.3729 149.849 16.1362 148.829 15.8813C147.736 15.6263 146.826 15.3623 146.097 15.0891C145.369 14.7977 144.741 14.3516 144.213 13.7506C143.684 13.1315 143.42 12.3029 143.42 11.2649C143.42 10.3908 143.657 9.59863 144.131 8.88842C144.622 8.16 145.332 7.58637 146.261 7.16753C147.208 6.74868 148.328 6.53926 149.621 6.53926C151.533 6.53926 153.036 7.01274 154.128 7.95968C155.239 8.90663 155.876 10.1632 156.04 11.7293H151.724C151.652 11.2012 151.415 10.7823 151.014 10.4727C150.632 10.1632 150.122 10.0084 149.484 10.0084C148.938 10.0084 148.519 10.1176 148.228 10.3362C147.937 10.5365 147.791 10.8187 147.791 11.1829C147.791 11.62 148.019 11.9478 148.474 12.1663C148.947 12.3848 149.676 12.6034 150.659 12.8219C151.788 13.1133 152.708 13.4046 153.418 13.696C154.128 13.9692 154.747 14.4244 155.275 15.0618C155.822 15.6809 156.104 16.5186 156.122 17.5748C156.122 18.4672 155.867 19.2684 155.357 19.9786C154.866 20.6706 154.146 21.2169 153.199 21.6176C152.271 22.0182 151.187 22.2185 149.949 22.2185Z" fill="white"/>
</svg>
