<svg width="54" height="53" viewBox="0 0 54 53" fill="none" xmlns="http://www.w3.org/2000/svg">
<g clip-path="url(#clip0_3_264)">
<path d="M27.2144 0C12.5731 0 0.714355 11.8587 0.714355 26.5C0.714355 38.2262 8.29998 48.1306 18.8337 51.6419C20.1587 51.8737 20.6556 51.0787 20.6556 50.3831C20.6556 49.7537 20.6225 47.6669 20.6225 45.4475C13.9644 46.6731 12.2419 43.8244 11.7119 42.3337C11.4137 41.5719 10.1219 39.22 8.99561 38.5906C8.06811 38.0937 6.74311 36.8681 8.96248 36.835C11.0494 36.8019 12.54 38.7562 13.0369 39.5512C15.4219 43.5594 19.2312 42.4331 20.755 41.7375C20.9869 40.015 21.6825 38.8556 22.4444 38.1931C16.5481 37.5306 10.3869 35.245 10.3869 25.1087C10.3869 22.2269 11.4137 19.8419 13.1031 17.9869C12.8381 17.3244 11.9106 14.6081 13.3681 10.9644C13.3681 10.9644 15.5875 10.2687 20.6556 13.6806C22.7756 13.0844 25.0281 12.7862 27.2806 12.7862C29.5331 12.7862 31.7856 13.0844 33.9056 13.6806C38.9737 10.2356 41.1931 10.9644 41.1931 10.9644C42.6506 14.6081 41.7231 17.3244 41.4581 17.9869C43.1475 19.8419 44.1744 22.1937 44.1744 25.1087C44.1744 35.2781 37.98 37.5306 32.0837 38.1931C33.0444 39.0212 33.8725 40.6112 33.8725 43.0956C33.8725 46.64 33.8394 49.4887 33.8394 50.3831C33.8394 51.0787 34.3362 51.9069 35.6612 51.6419C40.9222 49.8663 45.4939 46.4854 48.7324 41.9752C51.971 37.465 53.7134 32.0525 53.7144 26.5C53.7144 11.8587 41.8556 0 27.2144 0Z" fill="white"/>
</g>
<defs>
<clipPath id="clip0_3_264">
<rect width="53" height="53" fill="white" transform="translate(0.714355)"/>
</clipPath>
</defs>
</svg>
