<svg width="53" height="53" viewBox="0 0 53 53" fill="none" xmlns="http://www.w3.org/2000/svg">
<path d="M0 3.79613C0 1.69931 1.74237 0 3.89219 0H49.1078C51.2576 0 53 1.69931 53 3.79613V49.2039C53 51.3007 51.2576 53 49.1078 53H3.89219C1.74237 53 0 51.3007 0 49.2039V3.79613ZM16.3737 44.3676V20.4348H8.42038V44.3676H16.3737ZM12.3987 17.1654C15.1713 17.1654 16.8971 15.3303 16.8971 13.0314C16.8474 10.6828 15.1746 8.89738 12.4517 8.89738C9.72881 8.89738 7.95 10.6861 7.95 13.0314C7.95 15.3303 9.67581 17.1654 12.3457 17.1654H12.3987V17.1654ZM28.6564 44.3676V31.0017C28.6564 30.2862 28.7094 29.5707 28.9214 29.0606C29.4945 27.6329 30.8029 26.1522 33.0024 26.1522C35.881 26.1522 37.0304 28.3451 37.0304 31.5648V44.3676H44.9837V30.6406C44.9837 23.2869 41.0618 19.8684 35.828 19.8684C31.6079 19.8684 29.7164 22.1871 28.6564 23.8202V23.903H28.6034C28.621 23.8753 28.6387 23.8477 28.6564 23.8202V20.4348H20.7064C20.8058 22.6807 20.7064 44.3676 20.7064 44.3676H28.6564Z" fill="white"/>
</svg>
