<svg width="201" height="50" viewBox="0 0 201 50" fill="none" xmlns="http://www.w3.org/2000/svg">
<path fill-rule="evenodd" clip-rule="evenodd" d="M0 25C0 11.1929 11.1929 0 25 0H176C189.807 0 201 11.1929 201 25C201 38.8071 189.807 50 176 50H25C11.1929 50 0 38.8071 0 25ZM98.062 36H93.582L83.438 20.672V36H78.958V13.632H83.438L93.582 28.992V13.632H98.062V36ZM110.361 36.288C108.655 36.288 107.119 35.9147 105.753 35.168C104.388 34.4 103.311 33.3227 102.521 31.936C101.753 30.5493 101.369 28.9493 101.369 27.136C101.369 25.3227 101.764 23.7227 102.553 22.336C103.364 20.9493 104.463 19.8827 105.849 19.136C107.236 18.368 108.783 17.984 110.489 17.984C112.196 17.984 113.743 18.368 115.129 19.136C116.516 19.8827 117.604 20.9493 118.393 22.336C119.204 23.7227 119.609 25.3227 119.609 27.136C119.609 28.9493 119.193 30.5493 118.361 31.936C117.551 33.3227 116.441 34.4 115.033 35.168C113.647 35.9147 112.089 36.288 110.361 36.288ZM110.361 32.384C111.172 32.384 111.929 32.192 112.633 31.808C113.359 31.4027 113.935 30.8053 114.361 30.016C114.788 29.2267 115.001 28.2667 115.001 27.136C115.001 25.4507 114.553 24.16 113.657 23.264C112.783 22.3467 111.705 21.888 110.425 21.888C109.145 21.888 108.068 22.3467 107.193 23.264C106.34 24.16 105.913 25.4507 105.913 27.136C105.913 28.8213 106.329 30.1227 107.161 31.04C108.015 31.936 109.081 32.384 110.361 32.384ZM130.288 31.872L134.768 18.272H139.536L132.975 36H127.535L121.007 18.272H125.808L130.288 31.872ZM149.924 36.288C148.217 36.288 146.681 35.9147 145.316 35.168C143.95 34.4 142.873 33.3227 142.084 31.936C141.316 30.5493 140.932 28.9493 140.932 27.136C140.932 25.3227 141.326 23.7227 142.116 22.336C142.926 20.9493 144.025 19.8827 145.412 19.136C146.798 18.368 148.345 17.984 150.052 17.984C151.758 17.984 153.305 18.368 154.692 19.136C156.078 19.8827 157.166 20.9493 157.956 22.336C158.766 23.7227 159.172 25.3227 159.172 27.136C159.172 28.9493 158.756 30.5493 157.924 31.936C157.113 33.3227 156.004 34.4 154.596 35.168C153.209 35.9147 151.652 36.288 149.924 36.288ZM149.924 32.384C150.734 32.384 151.492 32.192 152.196 31.808C152.921 31.4027 153.497 30.8053 153.924 30.016C154.35 29.2267 154.564 28.2667 154.564 27.136C154.564 25.4507 154.116 24.16 153.22 23.264C152.345 22.3467 151.268 21.888 149.988 21.888C148.708 21.888 147.63 22.3467 146.756 23.264C145.902 24.16 145.476 25.4507 145.476 27.136C145.476 28.8213 145.892 30.1227 146.724 31.04C147.577 31.936 148.644 32.384 149.924 32.384ZM38.875 22.5C38.875 23.9438 40.0563 25.125 41.5 25.125C42.9437 25.125 44.125 23.9438 44.125 22.5C44.125 21.0562 42.9437 19.875 41.5 19.875C40.0563 19.875 38.875 21.0562 38.875 22.5ZM31 22.7625C31 16.2262 35.9875 12 41.5 12C47.0125 12 52 16.2262 52 22.7625C52 27.12 48.4956 32.2781 41.5 38.25C34.5044 32.2781 31 27.12 31 22.7625Z" fill="white"/>
</svg>
