<svg width="241" height="50" viewBox="0 0 241 50" fill="none" xmlns="http://www.w3.org/2000/svg">
<path fill-rule="evenodd" clip-rule="evenodd" d="M0 25C0 11.1929 11.1929 0 25 0H216C229.807 0 241 11.1929 241 25C241 38.8071 229.807 50 216 50H25C11.1929 50 0 38.8071 0 25ZM90.1054 20.576C90.1054 21.7707 89.8174 22.8907 89.2414 23.936C88.6867 24.9813 87.8014 25.824 86.5854 26.464C85.3907 27.104 83.876 27.424 82.0414 27.424H78.2974V36H73.8174V13.664H82.0414C83.7694 13.664 85.2414 13.9627 86.4574 14.56C87.6734 15.1573 88.58 15.9787 89.1774 17.024C89.796 18.0693 90.1054 19.2533 90.1054 20.576ZM81.8494 23.808C83.0867 23.808 84.004 23.5307 84.6014 22.976C85.1987 22.4 85.4974 21.6 85.4974 20.576C85.4974 18.4 84.2814 17.312 81.8494 17.312H78.2974V23.808H81.8494ZM97.7661 21.024C98.3421 20.0853 99.0888 19.3493 100.006 18.816C100.945 18.2827 102.011 18.016 103.206 18.016V22.72H102.022C100.614 22.72 99.5475 23.0507 98.8221 23.712C98.1181 24.3733 97.7661 25.5253 97.7661 27.168V36H93.2861V18.272H97.7661V21.024ZM114.096 36.288C112.389 36.288 110.853 35.9147 109.488 35.168C108.122 34.4 107.045 33.3227 106.256 31.936C105.488 30.5493 105.104 28.9493 105.104 27.136C105.104 25.3227 105.498 23.7227 106.288 22.336C107.098 20.9493 108.197 19.8827 109.584 19.136C110.97 18.368 112.517 17.984 114.224 17.984C115.93 17.984 117.477 18.368 118.864 19.136C120.25 19.8827 121.338 20.9493 122.128 22.336C122.938 23.7227 123.344 25.3227 123.344 27.136C123.344 28.9493 122.928 30.5493 122.096 31.936C121.285 33.3227 120.176 34.4 118.768 35.168C117.381 35.9147 115.824 36.288 114.096 36.288ZM114.096 32.384C114.906 32.384 115.664 32.192 116.368 31.808C117.093 31.4027 117.669 30.8053 118.096 30.016C118.522 29.2267 118.736 28.2667 118.736 27.136C118.736 25.4507 118.288 24.16 117.392 23.264C116.517 22.3467 115.44 21.888 114.16 21.888C112.88 21.888 111.802 22.3467 110.928 23.264C110.074 24.16 109.648 25.4507 109.648 27.136C109.648 28.8213 110.064 30.1227 110.896 31.04C111.749 31.936 112.816 32.384 114.096 32.384ZM125.478 27.136C125.478 25.3013 125.851 23.7013 126.598 22.336C127.345 20.9493 128.379 19.8827 129.702 19.136C131.025 18.368 132.539 17.984 134.246 17.984C136.443 17.984 138.257 18.5387 139.686 19.648C141.137 20.736 142.107 22.272 142.598 24.256H137.766C137.51 23.488 137.073 22.8907 136.454 22.464C135.857 22.016 135.11 21.792 134.214 21.792C132.934 21.792 131.921 22.2613 131.174 23.2C130.427 24.1173 130.054 25.4293 130.054 27.136C130.054 28.8213 130.427 30.1333 131.174 31.072C131.921 31.9893 132.934 32.448 134.214 32.448C136.027 32.448 137.211 31.6373 137.766 30.016H142.598C142.107 31.936 141.137 33.4613 139.686 34.592C138.235 35.7227 136.422 36.288 134.246 36.288C132.539 36.288 131.025 35.9147 129.702 35.168C128.379 34.4 127.345 33.3333 126.598 31.968C125.851 30.5813 125.478 28.9707 125.478 27.136ZM162.616 36H158.104V33.76C157.528 34.528 156.771 35.136 155.832 35.584C154.915 36.0107 153.912 36.224 152.824 36.224C151.437 36.224 150.211 35.936 149.144 35.36C148.077 34.7627 147.235 33.8987 146.616 32.768C146.019 31.616 145.72 30.2507 145.72 28.672V18.272H150.2V28.032C150.2 29.44 150.552 30.528 151.256 31.296C151.96 32.0427 152.92 32.416 154.136 32.416C155.373 32.416 156.344 32.0427 157.048 31.296C157.752 30.528 158.104 29.44 158.104 28.032V18.272H162.616V36ZM171.516 21.024C172.092 20.0853 172.839 19.3493 173.756 18.816C174.695 18.2827 175.761 18.016 176.956 18.016V22.72H175.772C174.364 22.72 173.297 23.0507 172.572 23.712C171.868 24.3733 171.516 25.5253 171.516 27.168V36H167.036V18.272H171.516V21.024ZM178.822 27.072C178.822 25.28 179.174 23.6907 179.878 22.304C180.603 20.9173 181.574 19.8507 182.79 19.104C184.027 18.3573 185.403 17.984 186.918 17.984C188.24 17.984 189.392 18.2507 190.374 18.784C191.376 19.3173 192.176 19.9893 192.774 20.8V18.272H197.286V36H192.774V33.408C192.198 34.24 191.398 34.9333 190.374 35.488C189.371 36.0213 188.208 36.288 186.886 36.288C185.392 36.288 184.027 35.904 182.79 35.136C181.574 34.368 180.603 33.2907 179.878 31.904C179.174 30.496 178.822 28.8853 178.822 27.072ZM192.774 27.136C192.774 26.048 192.56 25.12 192.134 24.352C191.707 23.5627 191.131 22.9653 190.406 22.56C189.68 22.1333 188.902 21.92 188.07 21.92C187.238 21.92 186.47 22.1227 185.766 22.528C185.062 22.9333 184.486 23.5307 184.038 24.32C183.611 25.088 183.398 26.0053 183.398 27.072C183.398 28.1387 183.611 29.0773 184.038 29.888C184.486 30.6773 185.062 31.2853 185.766 31.712C186.491 32.1387 187.259 32.352 188.07 32.352C188.902 32.352 189.68 32.1493 190.406 31.744C191.131 31.3173 191.707 30.72 192.134 29.952C192.56 29.1627 192.774 28.224 192.774 27.136ZM206.141 21.024C206.717 20.0853 207.464 19.3493 208.381 18.816C209.32 18.2827 210.386 18.016 211.581 18.016V22.72H210.397C208.989 22.72 207.922 23.0507 207.197 23.712C206.493 24.3733 206.141 25.5253 206.141 27.168V36H201.661V18.272H206.141V21.024ZM45.7188 18.5889C46.9832 19.8534 47.6154 21.375 47.6154 23.1538C47.6154 24.9327 46.9832 26.4543 45.7188 27.7188C44.4543 28.9832 42.9327 29.6154 41.1538 29.6154C39.375 29.6154 37.8534 28.9832 36.5889 27.7188C35.3245 26.4543 34.6923 24.9327 34.6923 23.1538C34.6923 21.375 35.3245 19.8534 36.5889 18.5889C37.8534 17.3245 39.375 16.6923 41.1538 16.6923C42.9327 16.6923 44.4543 17.3245 45.7188 18.5889ZM54.4519 36.4519C54.8173 36.0865 55 35.6538 55 35.1538C55 34.6442 54.8221 34.2115 54.4663 33.8558L49.5192 28.9087C50.7115 27.1875 51.3077 25.2692 51.3077 23.1538C51.3077 21.7788 51.0409 20.4639 50.5072 19.2091C49.9736 17.9543 49.2524 16.8726 48.3438 15.9639C47.4351 15.0553 46.3534 14.3341 45.0986 13.8005C43.8438 13.2668 42.5288 13 41.1538 13C39.7788 13 38.4639 13.2668 37.2091 13.8005C35.9543 14.3341 34.8726 15.0553 33.9639 15.9639C33.0553 16.8726 32.3341 17.9543 31.8005 19.2091C31.2668 20.4639 31 21.7788 31 23.1538C31 24.5288 31.2668 25.8438 31.8005 27.0986C32.3341 28.3534 33.0553 29.4351 33.9639 30.3438C34.8726 31.2524 35.9543 31.9736 37.2091 32.5072C38.4639 33.0409 39.7788 33.3077 41.1538 33.3077C43.2692 33.3077 45.1875 32.7115 46.9087 31.5192L51.8558 36.4519C52.2019 36.8173 52.6346 37 53.1538 37C53.6538 37 54.0865 36.8173 54.4519 36.4519Z" fill="white"/>
</svg>
