<svg width="1376" height="992" viewBox="0 0 1376 992" fill="none" xmlns="http://www.w3.org/2000/svg">
<g opacity="0.5">
<circle cx="81.4715" cy="246.48" r="3.47154" fill="white"/>
<circle cx="173.22" cy="195.894" r="3.47154" fill="white"/>
<circle cx="230.252" cy="306.488" r="3.47154" fill="white"/>
<circle cx="144.455" cy="366.992" r="3.47154" fill="white"/>
<circle cx="627.496" cy="300.537" r="3.47154" fill="white"/>
<circle cx="598.732" cy="471.634" r="3.47154" fill="white"/>
<circle r="3.47154" transform="matrix(-1 0 0 1 613.61 54.0569)" fill="white"/>
<circle r="3.47154" transform="matrix(-1 0 0 1 521.861 3.47154)" fill="white"/>
<circle r="3.47154" transform="matrix(-1 0 0 1 464.829 114.065)" fill="white"/>
<circle r="3.47154" transform="matrix(-1 0 0 1 550.626 174.569)" fill="white"/>
<circle r="3.47154" transform="matrix(-1 0 0 1 196.032 48.6016)" fill="white"/>
<circle r="3.47154" transform="matrix(-1 0 0 1 281.829 109.106)" fill="white"/>
<circle r="3.47154" transform="matrix(-0.231178 -0.972911 -0.972911 0.231178 399.235 460.014)" fill="white"/>
<circle r="3.47154" transform="matrix(-0.231178 -0.972911 -0.972911 0.231178 278.452 430.094)" fill="white"/>
</g>
<g opacity="0.5">
<circle cx="769.472" cy="258.48" r="3.47154" fill="white"/>
<circle cx="861.22" cy="207.894" r="3.47154" fill="white"/>
<circle cx="918.252" cy="318.488" r="3.47154" fill="white"/>
<circle cx="832.455" cy="378.992" r="3.47154" fill="white"/>
<circle cx="1223.75" cy="363.122" r="3.47154" fill="white"/>
<circle cx="1315.5" cy="312.537" r="3.47154" fill="white"/>
<circle cx="1372.53" cy="423.13" r="3.47154" fill="white"/>
<circle cx="1286.73" cy="483.634" r="3.47154" fill="white"/>
<circle r="3.47154" transform="matrix(-1 0 0 1 1301.61 66.0569)" fill="white"/>
<circle r="3.47154" transform="matrix(-1 0 0 1 1209.86 15.4715)" fill="white"/>
<circle r="3.47154" transform="matrix(-1 0 0 1 1152.83 126.065)" fill="white"/>
<circle r="3.47154" transform="matrix(-1 0 0 1 1238.63 186.569)" fill="white"/>
<circle r="3.47154" transform="matrix(-1 0 0 1 884.032 60.6016)" fill="white"/>
<circle r="3.47154" transform="matrix(-1 0 0 1 969.829 121.106)" fill="white"/>
<circle r="3.47154" transform="matrix(-0.231178 -0.972911 -0.972911 0.231178 1087.23 472.014)" fill="white"/>
<circle r="3.47154" transform="matrix(-0.231178 -0.972911 -0.972911 0.231178 966.452 442.094)" fill="white"/>
</g>
<g opacity="0.5">
<circle r="3.47154" transform="matrix(-1 0 0 1 606.528 733.48)" fill="white"/>
<circle r="3.47154" transform="matrix(-1 0 0 1 514.78 682.894)" fill="white"/>
<circle r="3.47154" transform="matrix(-1 0 0 1 457.748 793.488)" fill="white"/>
<circle r="3.47154" transform="matrix(-1 0 0 1 543.545 853.992)" fill="white"/>
<circle r="3.47154" transform="matrix(-1 0 0 1 152.252 838.122)" fill="white"/>
<circle r="3.47154" transform="matrix(-1 0 0 1 60.5043 787.537)" fill="white"/>
<circle r="3.47154" transform="matrix(-1 0 0 1 3.47157 898.13)" fill="white"/>
<circle r="3.47154" transform="matrix(-1 0 0 1 89.2682 958.634)" fill="white"/>
<circle cx="74.3905" cy="541.057" r="3.47154" fill="white"/>
<circle cx="166.138" cy="490.472" r="3.47154" fill="white"/>
<circle cx="223.171" cy="601.065" r="3.47154" fill="white"/>
<circle cx="137.374" cy="661.569" r="3.47154" fill="white"/>
<circle cx="491.968" cy="535.602" r="3.47154" fill="white"/>
<circle cx="406.171" cy="596.106" r="3.47154" fill="white"/>
<circle cx="288.766" cy="947.014" r="3.47154" transform="rotate(-76.6336 288.766 947.014)" fill="white"/>
<circle cx="409.548" cy="917.094" r="3.47154" transform="rotate(-76.6336 409.548 917.094)" fill="white"/>
</g>
<g opacity="0.5">
<circle r="3.47154" transform="matrix(-1 0 0 1 1318.53 748.48)" fill="white"/>
<circle r="3.47154" transform="matrix(-1 0 0 1 1226.78 697.894)" fill="white"/>
<circle r="3.47154" transform="matrix(-1 0 0 1 1169.75 808.488)" fill="white"/>
<circle r="3.47154" transform="matrix(-1 0 0 1 1255.54 868.992)" fill="white"/>
<circle r="3.47154" transform="matrix(-1 0 0 1 864.252 853.122)" fill="white"/>
<circle r="3.47154" transform="matrix(-1 0 0 1 772.504 802.537)" fill="white"/>
<circle r="3.47154" transform="matrix(-1 0 0 1 715.471 913.13)" fill="white"/>
<circle r="3.47154" transform="matrix(-1 0 0 1 801.268 973.634)" fill="white"/>
<circle cx="878.139" cy="505.472" r="3.47154" fill="white"/>
<circle cx="935.171" cy="616.065" r="3.47154" fill="white"/>
<circle cx="849.374" cy="676.569" r="3.47154" fill="white"/>
<circle cx="1203.97" cy="550.602" r="3.47154" fill="white"/>
<circle cx="1118.17" cy="611.106" r="3.47154" fill="white"/>
<circle cx="1000.77" cy="962.014" r="3.47154" transform="rotate(-76.6336 1000.77 962.014)" fill="white"/>
<circle cx="1121.55" cy="932.094" r="3.47154" transform="rotate(-76.6336 1121.55 932.094)" fill="white"/>
</g>
</svg>
