<svg width="243" height="98" viewBox="0 0 243 98" fill="none" xmlns="http://www.w3.org/2000/svg">
<path d="M29.2554 57.7789V64.8476H19.6584V93.9999H10.8353V64.8476H1.23833V57.7789H29.2554ZM38.1208 62.2162C36.5729 62.2162 35.3002 61.769 34.3027 60.8747C33.3395 59.9459 32.858 58.8108 32.858 57.4693C32.858 56.0934 33.3395 54.9582 34.3027 54.0639C35.3002 53.1351 36.5729 52.6708 38.1208 52.6708C39.6343 52.6708 40.8727 53.1351 41.8358 54.0639C42.8334 54.9582 43.3321 56.0934 43.3321 57.4693C43.3321 58.8108 42.8334 59.9459 41.8358 60.8747C40.8727 61.769 39.6343 62.2162 38.1208 62.2162ZM42.5066 65.2088V93.9999H33.6835V65.2088H42.5066ZM85.6376 64.8992C89.2149 64.8992 92.0528 65.9828 94.151 68.1498C96.2837 70.3169 97.3501 73.3267 97.3501 77.1793V93.9999H88.5786V78.366C88.5786 76.5085 88.0798 75.081 87.0823 74.0835C86.1191 73.0515 84.7776 72.5356 83.0577 72.5356C81.3378 72.5356 79.9791 73.0515 78.9816 74.0835C78.0184 75.081 77.5368 76.5085 77.5368 78.366V93.9999H68.7654V78.366C68.7654 76.5085 68.2666 75.081 67.2691 74.0835C66.3059 73.0515 64.9644 72.5356 63.2445 72.5356C61.5246 72.5356 60.1659 73.0515 59.1683 74.0835C58.2052 75.081 57.7236 76.5085 57.7236 78.366V93.9999H48.9006V65.2088H57.7236V68.8206C58.618 67.6167 59.7875 66.6707 61.2322 65.9828C62.6769 65.2604 64.3108 64.8992 66.1339 64.8992C68.301 64.8992 70.2273 65.3636 71.9128 66.2923C73.6327 67.2211 74.9742 68.5454 75.9373 70.2653C76.9349 68.683 78.2936 67.3931 80.0135 66.3955C81.7334 65.398 83.6081 64.8992 85.6376 64.8992ZM130.661 79.14C130.661 79.9655 130.609 80.8255 130.506 81.7198H110.538C110.675 83.5085 111.243 84.8844 112.241 85.8476C113.273 86.7763 114.528 87.2407 116.007 87.2407C118.209 87.2407 119.739 86.3119 120.599 84.4545H129.99C129.508 86.3463 128.631 88.049 127.358 89.5625C126.12 91.0761 124.555 92.2628 122.663 93.1227C120.771 93.9827 118.656 94.4127 116.317 94.4127C113.496 94.4127 110.985 93.8107 108.784 92.6068C106.582 91.4028 104.862 89.6829 103.624 87.4471C102.386 85.2112 101.766 82.597 101.766 79.6043C101.766 76.6117 102.368 73.9975 103.572 71.7616C104.811 69.5257 106.531 67.8059 108.732 66.6019C110.933 65.398 113.462 64.796 116.317 64.796C119.103 64.796 121.58 65.3808 123.747 66.5503C125.914 67.7199 127.599 69.3882 128.803 71.5552C130.042 73.7223 130.661 76.2505 130.661 79.14ZM121.631 76.8181C121.631 75.3046 121.115 74.1007 120.083 73.2063C119.051 72.312 117.761 71.8648 116.214 71.8648C114.734 71.8648 113.479 72.2948 112.447 73.1547C111.449 74.0147 110.83 75.2358 110.589 76.8181H121.631Z" fill="white"/>
<path d="M53.0416 4.77885L43.5994 40.9999H32.9188L27.14 17.1621L21.1547 40.9999H10.4742L1.28992 4.77885H10.7322L15.9434 31.1449L22.3931 4.77885H32.0933L38.2849 31.1449L43.5478 4.77885H53.0416ZM84.6064 26.14C84.6064 26.9655 84.5548 27.8255 84.4516 28.7198H64.4836C64.6212 30.5085 65.1888 31.8844 66.1863 32.8476C67.2183 33.7763 68.4738 34.2407 69.9529 34.2407C72.1544 34.2407 73.6851 33.3119 74.545 31.4545H83.9357C83.4541 33.3463 82.5769 35.049 81.3042 36.5625C80.0659 38.0761 78.5008 39.2628 76.6089 40.1227C74.717 40.9827 72.6015 41.4127 70.2625 41.4127C67.4419 41.4127 64.9308 40.8107 62.7293 39.6068C60.5279 38.4028 58.808 36.6829 57.5696 34.4471C56.3313 32.2112 55.7122 29.597 55.7122 26.6043C55.7122 23.6117 56.3141 20.9975 57.518 18.7616C58.7564 16.5257 60.4763 14.8059 62.6777 13.6019C64.8792 12.398 67.4075 11.796 70.2625 11.796C73.0487 11.796 75.5254 12.3808 77.6924 13.5503C79.8595 14.7199 81.545 16.3882 82.7489 18.5552C83.9873 20.7223 84.6064 23.2505 84.6064 26.14ZM75.577 23.8181C75.577 22.3046 75.061 21.1007 74.0291 20.2063C72.9971 19.312 71.7072 18.8648 70.1593 18.8648C68.6802 18.8648 67.4247 19.2948 66.3927 20.1547C65.3952 21.0147 64.776 22.2358 64.5352 23.8181H75.577ZM87.5067 26.5527C87.5067 23.5945 88.0571 20.9975 89.1578 18.7616C90.293 16.5257 91.8237 14.8059 93.75 13.6019C95.6762 12.398 97.8261 11.796 100.2 11.796C102.229 11.796 104.001 12.2088 105.514 13.0344C107.062 13.8599 108.249 14.9434 109.074 16.285V12.2088H117.897V40.9999H109.074V36.9237C108.214 38.2652 107.01 39.3488 105.462 40.1743C103.949 40.9999 102.177 41.4127 100.148 41.4127C97.8089 41.4127 95.6762 40.8107 93.75 39.6068C91.8237 38.3684 90.293 36.6313 89.1578 34.3955C88.0571 32.1252 87.5067 29.511 87.5067 26.5527ZM109.074 26.6043C109.074 24.4029 108.455 22.6658 107.217 21.3931C106.013 20.1203 104.534 19.484 102.779 19.484C101.025 19.484 99.5288 20.1203 98.2905 21.3931C97.0866 22.6314 96.4846 24.3513 96.4846 26.5527C96.4846 28.7542 97.0866 30.5085 98.2905 31.8156C99.5288 33.0884 101.025 33.7247 102.779 33.7247C104.534 33.7247 106.013 33.0884 107.217 31.8156C108.455 30.5429 109.074 28.8058 109.074 26.6043ZM140.327 33.5183V40.9999H135.838C132.639 40.9999 130.145 40.2259 128.357 38.678C126.568 37.0957 125.674 34.5331 125.674 30.9901V19.5356H122.165V12.2088H125.674V5.19163H134.497V12.2088H140.275V19.5356H134.497V31.0933C134.497 31.9532 134.703 32.5724 135.116 32.9508C135.529 33.3291 136.216 33.5183 137.18 33.5183H140.327ZM162.939 11.8992C166.242 11.8992 168.89 13 170.885 15.2014C172.88 17.3685 173.878 20.3611 173.878 24.1793V40.9999H165.106V25.366C165.106 23.4397 164.608 21.9434 163.61 20.8771C162.613 19.8107 161.271 19.2776 159.586 19.2776C157.9 19.2776 156.559 19.8107 155.561 20.8771C154.563 21.9434 154.065 23.4397 154.065 25.366V40.9999H145.242V2.81817H154.065V16.0786C154.959 14.8058 156.18 13.7911 157.728 13.0344C159.276 12.2776 161.013 11.8992 162.939 11.8992ZM207.149 26.14C207.149 26.9655 207.097 27.8255 206.994 28.7198H187.026C187.164 30.5085 187.731 31.8844 188.729 32.8476C189.761 33.7763 191.016 34.2407 192.496 34.2407C194.697 34.2407 196.228 33.3119 197.088 31.4545H206.478C205.997 33.3463 205.12 35.049 203.847 36.5625C202.609 38.0761 201.043 39.2628 199.152 40.1227C197.26 40.9827 195.144 41.4127 192.805 41.4127C189.984 41.4127 187.473 40.8107 185.272 39.6068C183.071 38.4028 181.351 36.6829 180.112 34.4471C178.874 32.2112 178.255 29.597 178.255 26.6043C178.255 23.6117 178.857 20.9975 180.061 18.7616C181.299 16.5257 183.019 14.8059 185.22 13.6019C187.422 12.398 189.95 11.796 192.805 11.796C195.591 11.796 198.068 12.3808 200.235 13.5503C202.402 14.7199 204.088 16.3882 205.292 18.5552C206.53 20.7223 207.149 23.2505 207.149 26.14ZM198.12 23.8181C198.12 22.3046 197.604 21.1007 196.572 20.2063C195.54 19.312 194.25 18.8648 192.702 18.8648C191.223 18.8648 189.967 19.2948 188.935 20.1547C187.938 21.0147 187.319 22.2358 187.078 23.8181H198.12ZM220.627 17.0073C221.659 15.425 222.949 14.1867 224.497 13.2923C226.044 12.3636 227.764 11.8992 229.656 11.8992V21.2383H227.231C225.03 21.2383 223.379 21.7198 222.278 22.683C221.177 23.6117 220.627 25.2628 220.627 27.6363V40.9999H211.804V12.2088H220.627V17.0073Z" fill="white"/>
</svg>
