<svg width="113" height="113" viewBox="0 0 113 113" fill="none" xmlns="http://www.w3.org/2000/svg">
<path d="M56.3414 93.3326C57.7253 93.3328 59.061 93.8409 60.0951 94.7605C61.1293 95.6801 61.79 96.9472 61.9519 98.3216L61.9915 98.9826V107.209C61.9884 108.649 61.436 110.033 60.447 111.079C59.4579 112.125 58.1069 112.754 56.6697 112.838C55.2326 112.921 53.8177 112.453 52.714 111.529C51.6103 110.605 50.901 109.294 50.731 107.864L50.6914 107.209V98.9826C50.6914 97.4842 51.2867 96.0471 52.3463 94.9875C53.4059 93.9279 54.843 93.3326 56.3414 93.3326V93.3326ZM90.4449 82.4168L96.2645 88.2363C97.2929 89.3026 97.8614 90.7303 97.8475 92.2117C97.8336 93.6931 97.2384 95.1098 96.1901 96.1566C95.1418 97.2034 93.7242 97.7966 92.2428 97.8085C90.7614 97.8203 89.3346 97.2498 88.2697 96.2198L82.4558 90.4059C81.4266 89.3403 80.8571 87.9131 80.87 86.4317C80.8829 84.9503 81.4771 83.5332 82.5246 82.4856C83.5722 81.4381 84.9893 80.8439 86.4707 80.831C87.9521 80.8181 89.3793 81.3876 90.4449 82.4168V82.4168ZM30.2158 82.4168C31.275 83.4763 31.87 84.9132 31.87 86.4113C31.87 87.9095 31.275 89.3464 30.2158 90.4059L24.4075 96.2254C23.3474 97.2856 21.9095 97.8812 20.4102 97.8812C18.9108 97.8812 17.4729 97.2856 16.4128 96.2254C15.3526 95.1653 14.757 93.7274 14.757 92.228C14.757 90.7287 15.3526 89.2908 16.4128 88.2307L22.2323 82.4111C23.2918 81.3519 24.7287 80.7569 26.2268 80.7569C27.725 80.7569 29.1619 81.3519 30.2214 82.4111L30.2158 82.4168ZM56.4149 25.1934C64.694 25.1934 72.634 28.4823 78.4882 34.3365C84.3424 40.1907 87.6312 48.1307 87.6312 56.4098C87.6312 64.6889 84.3424 72.6289 78.4882 78.4831C72.634 84.3373 64.694 87.6261 56.4149 87.6261C48.1358 87.6261 40.1958 84.3373 34.3416 78.4831C28.4874 72.6289 25.1985 64.6889 25.1985 56.4098C25.1985 48.1307 28.4874 40.1907 34.3416 34.3365C40.1958 28.4823 48.1358 25.1934 56.4149 25.1934V25.1934ZM52.1209 39.4767C51.0969 39.4767 50.1075 39.8475 49.3358 40.5206C48.5641 41.1937 48.0622 42.1234 47.9229 43.1379L47.8834 43.7142V60.6868L47.9229 61.2631C48.049 62.1801 48.4719 63.0306 49.1269 63.6846C49.7819 64.3386 50.633 64.7601 51.5502 64.8848L52.1209 64.9243H63.4209L63.9972 64.8848C64.9134 64.759 65.7632 64.337 66.4171 63.6831C67.071 63.0292 67.4931 62.1793 67.6189 61.2631L67.6584 60.6868L67.6189 60.1105C67.4931 59.1944 67.071 58.3445 66.4171 57.6906C65.7632 57.0367 64.9134 56.6147 63.9972 56.4889L63.4209 56.4493H56.3584V43.7142L56.3245 43.1379C56.1851 42.1224 55.6824 41.1919 54.9095 40.5187C54.1366 39.8456 53.1458 39.4753 52.1209 39.4767ZM107.079 50.8784C108.519 50.88 109.904 51.4314 110.951 52.42C111.998 53.4086 112.628 54.7597 112.713 56.1973C112.797 57.6349 112.329 59.0505 111.405 60.1548C110.481 61.2591 109.17 61.9688 107.74 62.1389L107.079 62.1784H98.8578C97.4177 62.1768 96.0326 61.6254 94.9855 60.6368C93.9383 59.6483 93.3082 58.2971 93.2238 56.8595C93.1394 55.4219 93.6071 54.0064 94.5314 52.902C95.4557 51.7977 96.7668 51.088 98.1968 50.9179L98.8578 50.8784H107.084H107.079ZM13.8703 50.7202C15.3103 50.7218 16.6955 51.2732 17.7426 52.2618C18.7898 53.2504 19.4199 54.6015 19.5043 56.0391C19.5887 57.4767 19.121 58.8923 18.1967 59.9966C17.2724 61.1009 15.9613 61.8106 14.5313 61.9807L13.8703 62.0202H5.63818C4.19859 62.0172 2.81443 61.4648 1.76836 60.4758C0.72229 59.4867 0.0932018 58.1357 0.00955325 56.6985C-0.0740953 55.2614 0.394006 53.8465 1.31827 52.7428C2.24254 51.639 3.55326 50.9298 4.98278 50.7597L5.63818 50.7202H13.8703ZM23.8708 16.1647L24.4075 16.6336L30.2214 22.4532C31.2347 23.4699 31.823 24.8343 31.8669 26.2691C31.9107 27.7039 31.4067 29.1016 30.4573 30.1783C29.5079 31.255 28.1843 31.93 26.7553 32.0661C25.3262 32.2022 23.899 31.7893 22.7634 30.9112L22.2323 30.4366L16.4128 24.6228C15.3994 23.606 14.8111 22.2417 14.7673 20.8068C14.7235 19.372 15.2275 17.9743 16.1769 16.8976C17.1263 15.8209 18.4499 15.146 19.8789 15.0098C21.3079 14.8737 22.7352 15.2866 23.8708 16.1647ZM96.2645 16.6336C97.2373 17.6065 97.8216 18.901 97.908 20.2741C97.9943 21.6472 97.5767 23.0046 96.7334 24.0917L96.2645 24.6228L90.4449 30.4423C89.4282 31.4556 88.0638 32.0439 86.629 32.0877C85.1942 32.1315 83.7965 31.6276 82.7198 30.6782C81.6431 29.7288 80.9681 28.4052 80.832 26.9762C80.6959 25.5471 81.1088 24.1199 81.9869 22.9843L82.4558 22.4475L88.2753 16.628C89.3349 15.5688 90.7717 14.9738 92.2699 14.9738C93.7681 14.9738 95.2049 15.5688 96.2645 16.628V16.6336ZM56.3584 0C57.7423 0.000182555 59.078 0.508254 60.1121 1.42785C61.1463 2.34744 61.8069 3.61459 61.9689 4.98896L62.0084 5.65002V13.8708C62.0199 15.3196 61.4743 16.7175 60.4844 17.7756C59.4945 18.8336 58.1359 19.4709 56.6895 19.5558C55.2431 19.6406 53.8194 19.1666 52.7125 18.2316C51.6057 17.2966 50.9003 15.9721 50.7423 14.5318L50.7084 13.8708V5.65002C50.7084 4.15154 51.3036 2.71443 52.3632 1.65485C53.4228 0.595268 54.8599 0 56.3584 0V0Z" fill="white"/>
</svg>
