<svg width="29" height="29" viewBox="0 0 29 29" fill="none" xmlns="http://www.w3.org/2000/svg">
<path d="M25.6006 18.689L27.1311 25.2945C27.1839 25.536 27.1821 25.7862 27.1258 26.0269C27.0695 26.2676 26.9602 26.4926 26.8058 26.6856C26.6514 26.8786 26.4558 27.0347 26.2334 27.1425C26.0109 27.2502 25.7672 27.3069 25.52 27.3084C25.4049 27.32 25.2888 27.32 25.1736 27.3084L18.5278 25.7778L5.7678 13.0662L12.8889 5.96118L25.6006 18.689Z" fill="white"/>
<path d="M1.7562 6.70218L6.50897 1.94941C6.82144 1.63851 7.2443 1.46399 7.68508 1.46399C8.12587 1.46399 8.54872 1.63851 8.8612 1.94941L11.5034 4.59163L4.39036 11.7047L1.74814 9.06246C1.59351 8.90705 1.47105 8.72268 1.38776 8.51989C1.30446 8.3171 1.26198 8.09988 1.26273 7.88065C1.26347 7.66143 1.30744 7.4445 1.39212 7.24228C1.47679 7.04007 1.60051 6.85653 1.7562 6.70218V6.70218Z" fill="white"/>
</svg>
