<svg width="258" height="70" viewBox="0 0 258 70" fill="none" xmlns="http://www.w3.org/2000/svg">
<path d="M34.9425 57.8842C35.8008 57.8843 36.6292 58.1994 37.2705 58.7697C37.9119 59.34 38.3217 60.1259 38.4221 60.9783L38.4466 61.3883V66.4902C38.4447 67.3831 38.1021 68.2415 37.4887 68.8903C36.8754 69.539 36.0375 69.9292 35.1461 69.9811C34.2548 70.0329 33.3773 69.7426 32.6928 69.1694C32.0083 68.5962 31.5684 67.7833 31.463 66.8967L31.4384 66.4902V61.3883C31.4384 60.4589 31.8076 59.5677 32.4648 58.9105C33.1219 58.2534 34.0132 57.8842 34.9425 57.8842V57.8842ZM56.0933 51.1143L59.7025 54.7235C60.3403 55.3848 60.6929 56.2702 60.6843 57.189C60.6756 58.1077 60.3065 58.9864 59.6563 59.6356C59.0062 60.2848 58.1271 60.6527 57.2083 60.6601C56.2895 60.6674 55.4046 60.3135 54.7442 59.6748L51.1385 56.0691C50.5002 55.4082 50.147 54.523 50.1549 53.6043C50.1629 52.6855 50.5315 51.8066 51.1811 51.1569C51.8308 50.5073 52.7097 50.1387 53.6285 50.1308C54.5472 50.1228 55.4324 50.476 56.0933 51.1143V51.1143ZM18.7396 51.1143C19.3965 51.7714 19.7655 52.6625 19.7655 53.5917C19.7655 54.5208 19.3965 55.4119 18.7396 56.0691L15.1374 59.6783C14.4799 60.3358 13.5881 60.7052 12.6582 60.7052C11.7284 60.7052 10.8366 60.3358 10.1791 59.6783C9.52156 59.0208 9.15217 58.129 9.15217 57.1991C9.15217 56.2693 9.52156 55.3775 10.1791 54.72L13.7883 51.1108C14.4454 50.4538 15.3365 50.0848 16.2657 50.0848C17.1948 50.0848 18.086 50.4538 18.7431 51.1108L18.7396 51.1143ZM34.9881 15.6248C40.1227 15.6248 45.047 17.6645 48.6778 21.2952C52.3085 24.9259 54.3482 29.8503 54.3482 34.9849C54.3482 40.1195 52.3085 45.0439 48.6778 48.6746C45.047 52.3053 40.1227 54.345 34.9881 54.345C29.8534 54.345 24.9291 52.3053 21.2984 48.6746C17.6677 45.0439 15.6279 40.1195 15.6279 34.9849C15.6279 29.8503 17.6677 24.9259 21.2984 21.2952C24.9291 17.6645 29.8534 15.6248 34.9881 15.6248V15.6248ZM32.325 24.4831C31.6899 24.4832 31.0763 24.7131 30.5977 25.1306C30.1191 25.548 29.8078 26.1246 29.7214 26.7538L29.6969 27.1112V37.6375L29.7214 37.9949C29.7996 38.5636 30.0619 39.0911 30.4681 39.4967C30.8743 39.9023 31.4022 40.1637 31.971 40.241L32.325 40.2656H39.3332L39.6906 40.241C40.2588 40.163 40.7858 39.9013 41.1914 39.4957C41.5969 39.0902 41.8587 38.5631 41.9367 37.9949L41.9612 37.6375L41.9367 37.2801C41.8587 36.7119 41.5969 36.1848 41.1914 35.7793C40.7858 35.3737 40.2588 35.112 39.6906 35.034L39.3332 35.0094H34.953V27.1112L34.932 26.7538C34.8456 26.124 34.5338 25.5469 34.0544 25.1294C33.5751 24.7119 32.9606 24.4823 32.325 24.4831ZM66.4093 31.5544C67.3024 31.5554 68.1615 31.8974 68.8109 32.5105C69.4603 33.1236 69.8512 33.9615 69.9035 34.8531C69.9558 35.7447 69.6658 36.6227 69.0925 37.3075C68.5193 37.9924 67.7062 38.4326 66.8193 38.5381L66.4093 38.5626H61.3108C60.4177 38.5616 59.5587 38.2196 58.9093 37.6065C58.2598 36.9934 57.869 36.1554 57.8167 35.2638C57.7643 34.3723 58.0544 33.4943 58.6276 32.8094C59.2009 32.1246 60.014 31.6844 60.9009 31.5789L61.3108 31.5544H66.4128H66.4093ZM8.60223 31.4563C9.49535 31.4573 10.3544 31.7993 11.0038 32.4124C11.6533 33.0255 12.0441 33.8634 12.0964 34.755C12.1488 35.6466 11.8587 36.5245 11.2854 37.2094C10.7122 37.8943 9.89908 38.3345 9.01221 38.4399L8.60223 38.4645H3.49676C2.60393 38.4626 1.74549 38.12 1.09672 37.5066C0.447959 36.8932 0.057803 36.0553 0.00592485 35.164C-0.0459533 34.2727 0.24436 33.3952 0.817582 32.7106C1.39081 32.0261 2.2037 31.5862 3.09028 31.4808L3.49676 31.4563H8.60223ZM14.8045 10.0252L15.1374 10.3161L18.7431 13.9253C19.3715 14.5559 19.7364 15.402 19.7636 16.2919C19.7907 17.1818 19.4782 18.0486 18.8894 18.7164C18.3006 19.3841 17.4797 19.8027 16.5934 19.8871C15.7071 19.9716 14.822 19.7155 14.1177 19.1709L13.7883 18.8766L10.1791 15.2709C9.55062 14.6403 9.18575 13.7941 9.15858 12.9042C9.13141 12.0144 9.44396 11.1475 10.0328 10.4798C10.6216 9.81202 11.4425 9.39341 12.3287 9.30899C13.215 9.22456 14.1002 9.48064 14.8045 10.0252ZM59.7025 10.3161C60.3058 10.9194 60.6682 11.7222 60.7218 12.5738C60.7753 13.4254 60.5163 14.2673 59.9933 14.9415L59.7025 15.2709L56.0933 18.8801C55.4627 19.5085 54.6165 19.8734 53.7266 19.9006C52.8368 19.9277 51.9699 19.6152 51.3022 19.0264C50.6344 18.4376 50.2158 17.6167 50.1314 16.7304C50.047 15.8441 50.303 14.959 50.8476 14.2547L51.1385 13.9218L54.7477 10.3126C55.4048 9.65564 56.2959 9.28661 57.2251 9.28661C58.1542 9.28661 59.0454 9.65564 59.7025 10.3126V10.3161ZM34.953 0C35.8113 0.000113219 36.6397 0.315215 37.2811 0.885539C37.9224 1.45586 38.3322 2.24174 38.4326 3.09412L38.4571 3.5041V8.60256C38.4642 9.50113 38.1259 10.3681 37.5119 11.0243C36.898 11.6804 36.0555 12.0757 35.1584 12.1283C34.2613 12.181 33.3783 11.887 32.6919 11.3071C32.0054 10.7272 31.568 9.90577 31.47 9.01254L31.4489 8.60256V3.5041C31.4489 2.57475 31.8181 1.68347 32.4753 1.02633C33.1324 0.36918 34.0237 0 34.953 0V0Z" fill="white"/>
<path d="M102.144 43.536V47.92H96.192V66H90.72V47.92H84.768V43.536H102.144ZM107.642 46.288C106.682 46.288 105.893 46.0107 105.274 45.456C104.677 44.88 104.378 44.176 104.378 43.344C104.378 42.4907 104.677 41.7867 105.274 41.232C105.893 40.656 106.682 40.368 107.642 40.368C108.581 40.368 109.349 40.656 109.946 41.232C110.565 41.7867 110.874 42.4907 110.874 43.344C110.874 44.176 110.565 44.88 109.946 45.456C109.349 46.0107 108.581 46.288 107.642 46.288ZM110.362 48.144V66H104.89V48.144H110.362ZM137.112 47.952C139.33 47.952 141.09 48.624 142.392 49.968C143.714 51.312 144.376 53.1787 144.376 55.568V66H138.936V56.304C138.936 55.152 138.626 54.2667 138.008 53.648C137.41 53.008 136.578 52.688 135.512 52.688C134.445 52.688 133.602 53.008 132.984 53.648C132.386 54.2667 132.088 55.152 132.088 56.304V66H126.648V56.304C126.648 55.152 126.338 54.2667 125.72 53.648C125.122 53.008 124.29 52.688 123.224 52.688C122.157 52.688 121.314 53.008 120.696 53.648C120.098 54.2667 119.8 55.152 119.8 56.304V66H114.328V48.144H119.8V50.384C120.354 49.6373 121.08 49.0507 121.976 48.624C122.872 48.176 123.885 47.952 125.016 47.952C126.36 47.952 127.554 48.24 128.6 48.816C129.666 49.392 130.498 50.2133 131.096 51.28C131.714 50.2987 132.557 49.4987 133.624 48.88C134.69 48.2613 135.853 47.952 137.112 47.952ZM165.035 56.784C165.035 57.296 165.003 57.8293 164.939 58.384H152.555C152.64 59.4933 152.992 60.3467 153.611 60.944C154.251 61.52 155.029 61.808 155.947 61.808C157.312 61.808 158.261 61.232 158.795 60.08H164.619C164.32 61.2533 163.776 62.3093 162.987 63.248C162.219 64.1867 161.248 64.9227 160.075 65.456C158.901 65.9893 157.589 66.256 156.139 66.256C154.389 66.256 152.832 65.8827 151.467 65.136C150.101 64.3893 149.035 63.3227 148.267 61.936C147.499 60.5493 147.115 58.928 147.115 57.072C147.115 55.216 147.488 53.5947 148.235 52.208C149.003 50.8213 150.069 49.7547 151.435 49.008C152.8 48.2613 154.368 47.888 156.139 47.888C157.867 47.888 159.403 48.2507 160.747 48.976C162.091 49.7013 163.136 50.736 163.883 52.08C164.651 53.424 165.035 54.992 165.035 56.784ZM159.435 55.344C159.435 54.4053 159.115 53.6587 158.475 53.104C157.835 52.5493 157.035 52.272 156.075 52.272C155.157 52.272 154.379 52.5387 153.739 53.072C153.12 53.6053 152.736 54.3627 152.587 55.344H159.435Z" fill="white"/>
<path d="M116.896 10.536L111.04 33H104.416L100.832 18.216L97.12 33H90.496L84.8 10.536H90.656L93.888 26.888L97.888 10.536H103.904L107.744 26.888L111.008 10.536H116.896ZM136.472 23.784C136.472 24.296 136.44 24.8293 136.376 25.384H123.992C124.078 26.4933 124.43 27.3467 125.048 27.944C125.688 28.52 126.467 28.808 127.384 28.808C128.75 28.808 129.699 28.232 130.232 27.08H136.056C135.758 28.2533 135.214 29.3093 134.424 30.248C133.656 31.1867 132.686 31.9227 131.512 32.456C130.339 32.9893 129.027 33.256 127.576 33.256C125.827 33.256 124.27 32.8827 122.904 32.136C121.539 31.3893 120.472 30.3227 119.704 28.936C118.936 27.5493 118.552 25.928 118.552 24.072C118.552 22.216 118.926 20.5947 119.672 19.208C120.44 17.8213 121.507 16.7547 122.872 16.008C124.238 15.2613 125.806 14.888 127.576 14.888C129.304 14.888 130.84 15.2507 132.184 15.976C133.528 16.7013 134.574 17.736 135.32 19.08C136.088 20.424 136.472 21.992 136.472 23.784ZM130.872 22.344C130.872 21.4053 130.552 20.6587 129.912 20.104C129.272 19.5493 128.472 19.272 127.512 19.272C126.595 19.272 125.816 19.5387 125.176 20.072C124.558 20.6053 124.174 21.3627 124.024 22.344H130.872ZM138.271 24.04C138.271 22.2053 138.612 20.5947 139.295 19.208C139.999 17.8213 140.948 16.7547 142.143 16.008C143.338 15.2613 144.671 14.888 146.143 14.888C147.402 14.888 148.5 15.144 149.439 15.656C150.399 16.168 151.135 16.84 151.647 17.672V15.144H157.119V33H151.647V30.472C151.114 31.304 150.367 31.976 149.407 32.488C148.468 33 147.37 33.256 146.111 33.256C144.66 33.256 143.338 32.8827 142.143 32.136C140.948 31.368 139.999 30.2907 139.295 28.904C138.612 27.496 138.271 25.8747 138.271 24.04ZM151.647 24.072C151.647 22.7067 151.263 21.6293 150.495 20.84C149.748 20.0507 148.831 19.656 147.743 19.656C146.655 19.656 145.727 20.0507 144.959 20.84C144.212 21.608 143.839 22.6747 143.839 24.04C143.839 25.4053 144.212 26.4933 144.959 27.304C145.727 28.0933 146.655 28.488 147.743 28.488C148.831 28.488 149.748 28.0933 150.495 27.304C151.263 26.5147 151.647 25.4373 151.647 24.072ZM171.03 28.36V33H168.246C166.262 33 164.715 32.52 163.606 31.56C162.496 30.5787 161.942 28.9893 161.942 26.792V19.688H159.766V15.144H161.942V10.792H167.414V15.144H170.998V19.688H167.414V26.856C167.414 27.3893 167.542 27.7733 167.798 28.008C168.054 28.2427 168.48 28.36 169.078 28.36H171.03ZM185.054 14.952C187.102 14.952 188.744 15.6347 189.982 17C191.219 18.344 191.838 20.2 191.838 22.568V33H186.398V23.304C186.398 22.1093 186.088 21.1813 185.47 20.52C184.851 19.8587 184.019 19.528 182.974 19.528C181.928 19.528 181.096 19.8587 180.478 20.52C179.859 21.1813 179.55 22.1093 179.55 23.304V33H174.078V9.32H179.55V17.544C180.104 16.7547 180.862 16.1253 181.822 15.656C182.782 15.1867 183.859 14.952 185.054 14.952ZM212.472 23.784C212.472 24.296 212.44 24.8293 212.376 25.384H199.992C200.078 26.4933 200.43 27.3467 201.048 27.944C201.688 28.52 202.467 28.808 203.384 28.808C204.75 28.808 205.699 28.232 206.232 27.08H212.056C211.758 28.2533 211.214 29.3093 210.424 30.248C209.656 31.1867 208.686 31.9227 207.512 32.456C206.339 32.9893 205.027 33.256 203.576 33.256C201.827 33.256 200.27 32.8827 198.904 32.136C197.539 31.3893 196.472 30.3227 195.704 28.936C194.936 27.5493 194.552 25.928 194.552 24.072C194.552 22.216 194.926 20.5947 195.672 19.208C196.44 17.8213 197.507 16.7547 198.872 16.008C200.238 15.2613 201.806 14.888 203.576 14.888C205.304 14.888 206.84 15.2507 208.184 15.976C209.528 16.7013 210.574 17.736 211.32 19.08C212.088 20.424 212.472 21.992 212.472 23.784ZM206.872 22.344C206.872 21.4053 206.552 20.6587 205.912 20.104C205.272 19.5493 204.472 19.272 203.512 19.272C202.595 19.272 201.816 19.5387 201.176 20.072C200.558 20.6053 200.174 21.3627 200.024 22.344H206.872ZM220.831 18.12C221.471 17.1387 222.271 16.3707 223.231 15.816C224.191 15.24 225.258 14.952 226.431 14.952V20.744H224.927C223.562 20.744 222.538 21.0427 221.855 21.64C221.172 22.216 220.831 23.24 220.831 24.712V33H215.359V15.144H220.831V18.12Z" fill="white"/>
</svg>
